<svg width="32" height="32" viewBox="0 0 32 32" fill="none" xmlns="http://www.w3.org/2000/svg">
<g id="Group 1920">
<path id="Vector" d="M7.81259 22.8112L9.10163 14.2339H25.3982C26.3834 14.2339 27.1011 15.1676 26.8477 16.1197L24.9691 23.1793C24.8557 23.5672 24.6443 23.8791 24.3239 24.1247L24.3238 24.1247L24.3202 24.1275C24.0024 24.3758 23.6411 24.5 23.2174 24.5H6.2275C5.76387 24.5 5.36324 24.3346 5.01413 23.9886L4.66414 24.3417L5.01413 23.9886C4.67154 23.649 4.5 23.2379 4.5 22.7369V9.26314C4.5 8.76472 4.66981 8.35809 5.01537 8.0102C5.36957 7.65965 5.76339 7.5 6.2275 7.5H12.8151L14.9519 9.61799L15.098 9.76288H15.3038H23.2171C23.724 9.76288 24.1363 9.93281 24.4874 10.2755C24.8322 10.6178 24.998 11.0189 25.0003 11.5156L24.9723 12.151H15.8638H7.31814H6.81814V12.651V22.7369L7.81259 22.8112Z" fill="#888A85" stroke="black"/>
</g>
</svg>
