<svg width="32" height="32" viewBox="0 0 32 32" fill="none" xmlns="http://www.w3.org/2000/svg">
<g id="Group 1922">
<g id="Group 1921">
<g id="Subtract">
<mask id="path-1-inside-1_7922_8530" fill="white">
<path fill-rule="evenodd" clip-rule="evenodd" d="M9 5H7C5.89543 5 5 5.89543 5 7V25C5 26.1046 5.89543 27 7 27H25C26.1046 27 27 26.1046 27 25V7C27 5.89543 26.1046 5 25 5H19V11C19 12.1046 18.1046 13 17 13H11C9.89543 13 9 12.1046 9 11V5Z"/>
</mask>
<path fill-rule="evenodd" clip-rule="evenodd" d="M9 5H7C5.89543 5 5 5.89543 5 7V25C5 26.1046 5.89543 27 7 27H25C26.1046 27 27 26.1046 27 25V7C27 5.89543 26.1046 5 25 5H19V11C19 12.1046 18.1046 13 17 13H11C9.89543 13 9 12.1046 9 11V5Z" fill="#888A85"/>
<path d="M9 5H10V4H9V5ZM19 5V4H18V5H19ZM7 6H9V4H7V6ZM6 7C6 6.44772 6.44771 6 7 6V4C5.34315 4 4 5.34314 4 7H6ZM6 25V7H4V25H6ZM7 26C6.44772 26 6 25.5523 6 25H4C4 26.6569 5.34314 28 7 28V26ZM25 26H7V28H25V26ZM26 25C26 25.5523 25.5523 26 25 26V28C26.6569 28 28 26.6569 28 25H26ZM26 7V25H28V7H26ZM25 6C25.5523 6 26 6.44772 26 7H28C28 5.34315 26.6569 4 25 4V6ZM19 6H25V4H19V6ZM18 5V11H20V5H18ZM18 11C18 11.5523 17.5523 12 17 12V14C18.6569 14 20 12.6569 20 11H18ZM17 12H11V14H17V12ZM11 12C10.4477 12 10 11.5523 10 11H8C8 12.6569 9.34315 14 11 14V12ZM10 11V5H8V11H10Z" fill="black" mask="url(#path-1-inside-1_7922_8530)"/>
</g>
<path id="Rectangle 2959" d="M10.5 5.5H17.5V10C17.5 10.8284 16.8284 11.5 16 11.5H12C11.1716 11.5 10.5 10.8284 10.5 10V5.5Z" fill="#888A85" stroke="black"/>
<rect id="Rectangle 2957" x="8" y="17" width="16" height="1.5" rx="0.75" fill="white"/>
<rect id="Rectangle 2958" x="8" y="20" width="10" height="1.5" rx="0.75" fill="white"/>
</g>
</g>
</svg>
