<svg width="32" height="32" viewBox="0 0 32 32" fill="none" xmlns="http://www.w3.org/2000/svg">
<g id="Group 1919">
<g id="Group 1918">
<path id="Subtract" d="M5.5 7C5.5 6.17157 6.17157 5.5 7 5.5H25C25.8284 5.5 26.5 6.17157 26.5 7V13.5H24.5V12.625C24.5 11.4101 23.437 10.5 22.2222 10.5H9.77778C8.56303 10.5 7.5 11.4101 7.5 12.625V22.375C7.5 23.5899 8.56303 24.5 9.77778 24.5H10.5V26.5H7C6.17157 26.5 5.5 25.8284 5.5 25V7Z" fill="#888A85" stroke="black"/>
<g id="Group 1917">
<circle id="Ellipse 43" cx="21" cy="21" r="5.5" fill="#888A85" stroke="black"/>
<rect id="Rectangle 2954" x="18" y="20.5" width="6" height="1" rx="0.2" fill="white"/>
<rect id="Rectangle 2955" x="20.5" y="24" width="6" height="1" rx="0.2" transform="rotate(-90 20.5 24)" fill="white"/>
</g>
</g>
</g>
</svg>
