<svg width="32" height="32" viewBox="0 0 32 32" fill="none" xmlns="http://www.w3.org/2000/svg">
<g id="Group 1962">
<path id="Vector 9" d="M27.5 15.5L18 6.5V12L15 12.5L10 14.5L5.5 20.5L4.5 25.5L9 21.5L14 19.5H18V25.5L27.5 15.5Z" fill="#888A85"/>
<path id="Vector" d="M18.052 25.4237L18.1622 25.4588L18.2052 25.5L18.2137 25.5C18.3807 25.5 18.4692 25.4617 18.592 25.346L27.3626 16.1567L27.3704 16.1485L27.3786 16.1406C27.4711 16.0522 27.5056 15.9493 27.4993 15.8282C27.4927 15.7022 27.4395 15.5579 27.3468 15.4318L18.5913 6.65716L18.5602 6.62599L18.535 6.58986C18.493 6.52959 18.3584 6.43907 18.1159 6.55509C17.9644 6.62756 17.8836 6.70238 17.84 6.76483C17.7995 6.82303 17.7731 6.89606 17.7731 7.00385V11.403V11.874L17.3029 11.9021C14.0799 12.0948 11.2687 13.3432 8.95178 15.656L8.95186 15.6561L8.94417 15.6635C6.42663 18.0718 4.91118 21.1507 4.50042 24.8241C4.50447 24.9398 4.53753 25.0688 4.59348 25.1691C4.6526 25.2752 4.71002 25.3058 4.74337 25.3138L4.79497 25.3261L4.84282 25.349C5.05604 25.451 5.32322 25.4014 5.48773 25.1916L5.49462 25.1828L5.50188 25.1744C7.91044 22.3694 10.2997 20.4539 12.4586 20.0135C14.0818 19.6009 15.6037 19.498 17.3324 19.7047L17.7731 19.7574V20.2012V25.0002C17.7731 25.0734 17.8043 25.1731 17.8741 25.2695C17.9464 25.3695 18.0222 25.4141 18.052 25.4237Z" stroke="black"/>
</g>
</svg>
