<svg width="32" height="32" viewBox="0 0 32 32" fill="none" xmlns="http://www.w3.org/2000/svg">
<g id="Group 1928">
<g id="Group 1925">
<g id="Group 1924">
<g id="Group 1923">
<path id="Vector 9" d="M4.5 15.5L14 6.5V12L17 12.5L22 14.5L26.5 20.5L27.5 25.5L23 21.5L18 19.5H14V25.5L4.5 15.5Z" fill="#888A85"/>
<path id="Vector" d="M13.948 25.4237L13.8378 25.4588L13.7948 25.5L13.7863 25.5C13.6193 25.5 13.5308 25.4617 13.408 25.346L4.63743 16.1567L4.62958 16.1485L4.62136 16.1406C4.52893 16.0522 4.49437 15.9493 4.5007 15.8282C4.50729 15.7022 4.56047 15.5579 4.6532 15.4318L13.4087 6.65716L13.4398 6.62599L13.465 6.58986C13.507 6.52959 13.6416 6.43907 13.8841 6.55509C14.0356 6.62756 14.1164 6.70238 14.16 6.76483C14.2005 6.82303 14.2269 6.89606 14.2269 7.00385V11.403V11.874L14.6971 11.9021C17.9201 12.0948 20.7313 13.3432 23.0482 15.656L23.0481 15.6561L23.0558 15.6635C25.5734 18.0718 27.0888 21.1507 27.4996 24.8241C27.4955 24.9398 27.4625 25.0688 27.4065 25.1691C27.3474 25.2752 27.29 25.3058 27.2566 25.3138L27.205 25.3261L27.1572 25.349C26.944 25.451 26.6768 25.4014 26.5123 25.1916L26.5054 25.1828L26.4981 25.1744C24.0896 22.3694 21.7003 20.4539 19.5414 20.0135C17.9182 19.6009 16.3963 19.498 14.6676 19.7047L14.2269 19.7574V20.2012V25.0002C14.2269 25.0734 14.1957 25.1731 14.1259 25.2695C14.0536 25.3695 13.9778 25.4141 13.948 25.4237Z" stroke="black"/>
</g>
</g>
</g>
</g>
</svg>
