<svg width="32" height="32" viewBox="0 0 32 32" fill="none" xmlns="http://www.w3.org/2000/svg">
<g id="Group 1948">
<g id="Group 1939">
<g id="Group 1938">
<g id="Group 1936">
<path id="Rectangle 2961" d="M26.169 6.09961V20.3996L18.2305 26.4496V12.1496L26.169 6.09961Z" fill="#888A85"/>
<path id="Polygon 11" d="M12.5664 5.75497C12.8231 5.59259 13.123 5.51196 13.4265 5.52373L25.0582 5.97503C25.8634 6.00627 26.5 6.66811 26.5 7.47391V19.9683C26.5 20.4327 26.2849 20.8709 25.9175 21.1549L19.5855 26.0509C19.2442 26.3148 18.8058 26.419 18.3823 26.3368L6.71433 24.0733C6.0092 23.9365 5.5 23.319 5.5 22.6007V11.0514C5.5 10.5371 5.76346 10.0587 6.19807 9.78373L12.5664 5.75497Z" stroke="black"/>
<line id="Line 207" x1="18.2031" y1="11.6016" x2="18.2031" y2="25.9016" stroke="black"/>
<line id="Line 209" y1="-0.5" x2="9.22758" y2="-0.5" transform="matrix(-0.802955 0.59604 -0.566429 -0.82411 25.1094 6.09961)" stroke="black"/>
<line id="Line 208" y1="-0.5" x2="12.7492" y2="-0.5" transform="matrix(0.996271 0.0862796 -0.079931 0.9968 5 11.6016)" stroke="black"/>
<path id="Line 210" d="M12.5449 18.0005C12.5449 18.2767 12.7688 18.5007 13.0449 18.501C13.3211 18.5012 13.5449 18.2776 13.5449 18.0014L12.5449 18.0005ZM12.5448 6.09941L12.5449 18.0005L13.5449 18.0014L13.5448 6.10032L12.5448 6.09941Z" fill="black"/>
<path id="Line 213" d="M13.1332 17.519C12.867 17.4455 12.5916 17.6016 12.5181 17.8678C12.4445 18.1339 12.6006 18.4094 12.8668 18.4829L13.1332 17.519ZM17.8363 18.8188L13.1332 17.519L12.8668 18.4829L17.5699 19.7827L17.8363 18.8188Z" fill="black"/>
<path id="Line 212" d="M13.3109 18.3926C13.5272 18.2209 13.5633 17.9064 13.3916 17.6901C13.2199 17.4738 12.9054 17.4377 12.6891 17.6094L13.3109 18.3926ZM6.36948 23.9033L13.3109 18.3926L12.6891 17.6094L5.74771 23.1201L6.36948 23.9033Z" fill="black"/>
</g>
</g>
</g>
</g>
</svg>
