<svg width="32" height="32" viewBox="0 0 32 32" fill="none" xmlns="http://www.w3.org/2000/svg">
<g id="Group 1949">
<g id="Group 1941">
<path id="Rectangle 2961" d="M26.1684 6.65078V20.4008H12.9375V5.55078L26.1684 6.65078Z" fill="#888A85"/>
<g id="Group 1940">
<g id="Group 1938">
<g id="Group 1936">
<path id="Polygon 11" d="M12.5664 5.75497C12.8231 5.59259 13.123 5.51196 13.4265 5.52373L25.0582 5.97503C25.8634 6.00627 26.5 6.66811 26.5 7.47391V19.9683C26.5 20.4327 26.2849 20.8709 25.9175 21.1549L19.5145 26.1058C19.2044 26.3456 18.8128 26.4544 18.4235 26.4091L6.82657 25.0592C6.07035 24.9712 5.5 24.3306 5.5 23.5693V11.0514C5.5 10.5371 5.76346 10.0587 6.19807 9.78373L12.5664 5.75497Z" stroke="black"/>
<line id="Line 207" x1="20.3184" y1="10.5" x2="20.3184" y2="25.9" stroke="black"/>
<path id="Line 214" d="M12.4375 20.3996C12.4375 20.6758 12.6614 20.8996 12.9375 20.8996C13.2136 20.8996 13.4375 20.6758 13.4375 20.3996H12.4375ZM12.4375 6.09961V20.3996H13.4375V6.09961H12.4375Z" fill="black"/>
<line id="Line 209" y1="-0.5" x2="7.72615" y2="-0.5" transform="matrix(-0.821995 0.569495 -0.539949 -0.841698 26.1699 6.09961)" stroke="black"/>
<line id="Line 208" x1="5" y1="11.1016" x2="19.8187" y2="11.1016" stroke="black"/>
<path id="Line 213" d="M12.4097 19.9004C12.1336 19.9004 11.9097 20.1242 11.9097 20.4004C11.9097 20.6765 12.1336 20.9004 12.4097 20.9004L12.4097 19.9004ZM26.1699 19.9004L12.4097 19.9004L12.4097 20.9004L26.1699 20.9004L26.1699 19.9004Z" fill="black"/>
<path id="Line 212" d="M12.671 20.8265C12.9012 20.6739 12.9706 20.3594 12.8262 20.1241C12.6817 19.8888 12.378 19.8217 12.1478 19.9743L12.671 20.8265ZM6.32019 25.0374L12.671 20.8265L12.1478 19.9743L5.79699 24.1852L6.32019 25.0374Z" fill="black"/>
</g>
</g>
</g>
</g>
</g>
</svg>
