<svg width="32" height="32" viewBox="0 0 32 32" fill="none" xmlns="http://www.w3.org/2000/svg">
<g id="Group 1950">
<g id="Group 1943">
<g id="Group 1942">
<g id="Group 1940">
<g id="Group 1938">
<g id="Group 1936">
<path id="Rectangle 2961" d="M26.1275 20.3992L19.4557 26.4492L6.66797 23.6992L13.3398 18.1992L26.1275 20.3992Z" fill="#888A85"/>
<path id="Polygon 11" d="M12.9649 5.7373C13.216 5.58613 13.5058 5.5118 13.7986 5.52349L25.0598 5.97296C25.8643 6.00507 26.5 6.66661 26.5 7.47177V20.0259C26.5 20.4656 26.3071 20.8832 25.9722 21.1682L20.2921 26.0028C19.9484 26.2953 19.4913 26.4176 19.0475 26.3356L6.72761 24.0606C6.01626 23.9292 5.5 23.3089 5.5 22.5855V11.0803C5.5 10.5542 5.77556 10.0666 6.22619 9.79526L12.9649 5.7373Z" stroke="black"/>
<line id="Line 207" x1="19.957" y1="11.5996" x2="19.957" y2="25.8996" stroke="black"/>
<path id="Line 214" d="M12.8398 18.1996C12.8398 18.4758 13.0637 18.6996 13.3398 18.6996C13.616 18.6996 13.8398 18.4758 13.8398 18.1996H12.8398ZM12.8398 6.09961V18.1996H13.8398V6.09961H12.8398Z" fill="black"/>
<path id="Line 209" d="M26.1264 6.6499L19.7777 12.048" stroke="black"/>
<path id="Line 208" d="M5.55664 11.0508L19.4989 12.1519" stroke="black"/>
<path id="Line 213" d="M13.424 17.7076C13.1519 17.6608 12.8933 17.8435 12.8465 18.1156C12.7997 18.3878 12.9823 18.6463 13.2545 18.6932L13.424 17.7076ZM26.2117 19.9076L13.424 17.7076L13.2545 18.6932L26.0422 20.8932L26.2117 19.9076Z" fill="black"/>
<path id="Line 212" d="M13.6455 18.5958C13.8651 18.4287 13.9057 18.1162 13.7362 17.8979C13.5667 17.6796 13.2513 17.6381 13.0318 17.8052L13.6455 18.5958ZM6.41855 24.0956L13.6455 18.5958L13.0318 17.8052L5.80477 23.305L6.41855 24.0956Z" fill="black"/>
</g>
</g>
</g>
</g>
</g>
</g>
</svg>
