<svg width="32" height="32" viewBox="0 0 32 32" fill="none" xmlns="http://www.w3.org/2000/svg">
<g id="Group 1947">
<g id="Group 1937">
<g id="Group 1936">
<path id="Rectangle 2961" d="M14.4505 5.52344L26.1262 8.14249L21.1223 12.8568L5.55469 10.2377L14.4505 5.52344Z" fill="#888A85"/>
<path id="Polygon 11" d="M13.9344 5.76106C14.237 5.6082 14.5824 5.56234 14.9144 5.63098L25.3037 7.77892C26.0003 7.92295 26.5 8.53648 26.5 9.24785V20.3862C26.5 20.7944 26.3336 21.185 26.0393 21.4678L21.3218 26.0011C21.0056 26.305 20.5723 26.4552 20.1358 26.4124L6.85342 25.1082C6.08546 25.0327 5.5 24.387 5.5 23.6153V10.9447C5.5 10.3787 5.81851 9.86097 6.32365 9.60579L13.9344 5.76106Z" stroke="black"/>
<line id="Line 207" x1="19.957" y1="12.332" x2="19.957" y2="25.9511" stroke="black"/>
<line id="Line 209" y1="-0.5" x2="8.48241" y2="-0.5" transform="matrix(-0.786552 0.617525 -0.662536 -0.74903 26.127 8.14453)" stroke="black"/>
<line id="Line 208" y1="-0.5" x2="15.5491" y2="-0.5" transform="matrix(0.990548 0.137163 -0.154143 0.988048 5.4375 11.2852)" stroke="black"/>
<path id="Line 210" d="M12.1641 17.999C12.1641 18.2752 12.3879 18.499 12.6641 18.499C12.9402 18.499 13.1641 18.2752 13.1641 17.999L12.1641 17.999ZM12.1641 11.2852L12.1641 17.999L13.1641 17.999L13.1641 11.2852L12.1641 11.2852Z" fill="black"/>
<path id="Line 212" d="M12.8758 18.6675C13.0708 18.4726 13.0611 18.1657 12.8542 17.982C12.6473 17.7984 12.3216 17.8075 12.1266 18.0024L12.8758 18.6675ZM6.48673 25.0563L12.8758 18.6675L12.1266 18.0024L5.73753 24.3913L6.48673 25.0563Z" fill="black"/>
<path id="Line 211" d="M13.0981 17.5097C12.8274 17.4555 12.5639 17.6311 12.5097 17.9019C12.4555 18.1726 12.6311 18.4361 12.9019 18.4903L13.0981 17.5097ZM12.9019 18.4903L26.465 21.2051L26.6613 20.2246L13.0981 17.5097L12.9019 18.4903Z" fill="black"/>
</g>
</g>
</g>
</svg>
