<svg width="32" height="32" viewBox="0 0 32 32" fill="none" xmlns="http://www.w3.org/2000/svg">
<g id="Group 1946">
<g id="Group 1935">
<path id="Rectangle 2961" d="M5.41211 11.2852L20.0788 12.8566V25.9518L5.93592 24.9042L5.41211 11.2852Z" fill="#888A85"/>
<path id="Polygon 11" d="M13.4876 5.77594C13.7931 5.6138 14.1452 5.56222 14.4844 5.62995L25.2937 7.78822C25.9951 7.92826 26.5 8.54399 26.5 9.25919V20.3143C26.5 20.7539 26.3072 21.1714 25.9725 21.4563L20.5609 26.0648C20.249 26.3304 19.842 26.4569 19.4344 26.4149L6.84609 25.1164C6.08131 25.0375 5.5 24.3931 5.5 23.6243V10.9171C5.5 10.362 5.80653 9.85231 6.29683 9.5921L13.4876 5.77594Z" stroke="black"/>
<line id="Line 207" x1="20.0547" y1="12.332" x2="20.0547" y2="25.9511" stroke="black"/>
<line id="Line 209" x1="25.6365" y1="8.52864" x2="20.0029" y2="13.2233" stroke="black"/>
<line id="Line 208" x1="5.48282" y1="10.7902" x2="20.1495" y2="12.8854" stroke="black"/>
<path id="Line 210" d="M13.8164 11.999C13.8164 12.2752 14.0403 12.499 14.3164 12.499C14.5925 12.499 14.8164 12.2752 14.8164 11.999L13.8164 11.999ZM13.8164 6.04688L13.8164 11.999L14.8164 11.999L14.8164 6.04687L13.8164 6.04688Z" fill="black"/>
<path id="Line 211" d="M20 20.2148C19.7239 20.2148 19.5 20.4387 19.5 20.7148C19.5 20.991 19.7239 21.2148 20 21.2148V20.2148ZM20 21.2148H26.3624V20.2148H20V21.2148Z" fill="black"/>
</g>
</g>
</svg>
