<svg width="32" height="32" viewBox="0 0 32 32" fill="none" xmlns="http://www.w3.org/2000/svg">
<g id="Group 1934">
<g id="Group 1933">
<path id="Polygon 11" d="M15.2983 5.93705C15.7373 5.70475 16.2627 5.70475 16.7017 5.93705L25.094 10.3786C25.5851 10.6385 25.8923 11.1487 25.8923 11.7043V20.2957C25.8923 20.8513 25.5851 21.3615 25.094 21.6214L16.7017 26.063C16.2627 26.2952 15.7373 26.2952 15.2983 26.063L6.90604 21.6214C6.4149 21.3615 6.1077 20.8513 6.1077 20.2957V11.7043C6.1077 11.1487 6.4149 10.6385 6.90604 10.3786L15.2983 5.93705Z" stroke="black"/>
<line id="Line 207" x1="16" y1="16" x2="16" y2="26" stroke="black"/>
<line id="Line 208" x1="6.25725" y1="10.5713" x2="16.2572" y2="16.5713" stroke="black"/>
<line id="Line 209" y1="-0.5" x2="11.6619" y2="-0.5" transform="matrix(-0.857493 0.514496 0.514496 0.857493 26 11)" stroke="black"/>
<path id="Line 210" d="M16 9V13" stroke="black" stroke-linecap="round"/>
<path id="Line 211" d="M22.7324 20L19.2683 18" stroke="black" stroke-linecap="round"/>
<path id="Line 212" d="M12.4648 18L9.00074 20" stroke="black" stroke-linecap="round"/>
</g>
</g>
</svg>
