<svg width="32" height="32" viewBox="0 0 32 32" fill="none" xmlns="http://www.w3.org/2000/svg">
<g id="Group 1951">
<g id="Group 1945">
<g id="Group 1944">
<g id="Group 1938">
<g id="Group 1936">
<path id="Rectangle 2961" d="M13.4698 5.55078L14.5283 18.7508L5.53125 24.2508V10.5008L13.4698 5.55078Z" fill="#888A85"/>
<path id="Polygon 11" d="M12.5664 5.75497C12.8231 5.59259 13.123 5.51196 13.4265 5.52373L25.0582 5.97503C25.8634 6.00627 26.5 6.66811 26.5 7.47391V20.0198C26.5 20.4621 26.3047 20.8819 25.9664 21.1669L20.1531 26.0644C19.8387 26.3293 19.4293 26.4536 19.0207 26.4081L6.834 25.0511C6.07451 24.9666 5.5 24.3245 5.5 23.5603V11.0514C5.5 10.5371 5.76346 10.0587 6.19807 9.78373L12.5664 5.75497Z" stroke="black"/>
<line id="Line 207" x1="19.2617" y1="11.5996" x2="19.2617" y2="25.8996" stroke="black"/>
<line id="Line 209" y1="-0.5" x2="9.22758" y2="-0.5" transform="matrix(-0.802955 0.59604 -0.566429 -0.82411 26.1699 6.09961)" stroke="black"/>
<path id="Line 208" d="M5.04102 11.0508L18.8012 12.1508" stroke="black"/>
<path id="Line 210" d="M14.0279 18.789C14.05 19.0643 14.291 19.2698 14.5662 19.248C14.8415 19.2262 15.0468 18.9853 15.0247 18.71L14.0279 18.789ZM12.9702 5.58894L14.0279 18.789L15.0247 18.71L13.967 5.50997L12.9702 5.58894Z" fill="black"/>
<path id="Line 213" d="M14.5968 18.2553C14.3234 18.2166 14.0704 18.4068 14.0316 18.6802C13.9929 18.9536 14.1831 19.2067 14.4565 19.2454L14.5968 18.2553ZM26.2401 19.9053L14.5968 18.2553L14.4565 19.2454L26.0998 20.8954L26.2401 19.9053Z" fill="black"/>
<path id="Line 212" d="M14.7863 19.1821C15.0159 19.0329 15.0857 18.7186 14.9422 18.48C14.7987 18.2413 14.4962 18.1688 14.2665 18.3179L14.7863 19.1821ZM6.31845 24.6821L14.7863 19.1821L14.2665 18.3179L5.79874 23.8179L6.31845 24.6821Z" fill="black"/>
</g>
</g>
</g>
</g>
</g>
</svg>
