<svg width="32" height="32" viewBox="0 0 32 32" fill="none" xmlns="http://www.w3.org/2000/svg">
<g id="Group 1930">
<g id="Group 1929">
<path id="Rectangle 2960" d="M17.7071 20L20.6409 17.0662L26.8622 23.2874C27.0574 23.4826 27.0574 23.7992 26.8622 23.9945L24.6354 26.2212C24.4402 26.4165 24.1236 26.4165 23.9283 26.2212L17.7071 20Z" fill="#888A85" stroke="black"/>
<circle id="Ellipse 44" cx="14" cy="14" r="8.5" fill="#888A85" stroke="black"/>
<path id="Star 1" d="M7.44077 14L11.7972 12.388C12.0709 12.2867 12.2867 12.0709 12.388 11.7972L14 7.44077L15.612 11.7972C15.7133 12.0709 15.9291 12.2867 16.2028 12.388L20.5592 14L16.2028 15.612C15.9291 15.7133 15.7133 15.9291 15.612 16.2028L14 20.5592L12.388 16.2028C12.2867 15.9291 12.0709 15.7133 11.7972 15.612L7.44077 14Z" fill="white" stroke="black"/>
</g>
</g>
</svg>
